<?xml version="1.0" standalone="no"?>
<!DOCTYPE svg PUBLIC "-//W3C//DTD SVG 20010904//EN"
 "http://www.w3.org/TR/2001/REC-SVG-20010904/DTD/svg10.dtd">
<svg version="1.0" xmlns="http://www.w3.org/2000/svg"
 width="512.000000pt" height="512.000000pt" viewBox="0 0 512.000000 512.000000"
 preserveAspectRatio="xMidYMid meet">
<metadata>
Created by potrace 1.11, written by Peter Selinger 2001-2013
</metadata>
<g transform="translate(0.000000,512.000000) scale(0.100000,-0.100000)"
fill="#000000" stroke="none">
<path d="M1160 2859 c0 -1736 3 -2258 12 -2253 6 4 320 248 696 541 376 294
690 532 697 529 7 -2 322 -246 699 -540 378 -295 689 -536 692 -536 2 0 4
1017 4 2260 l0 2260 -1400 0 -1400 0 0 -2261z m759 888 c52 -35 68 -67 84
-169 l13 -83 635 -3 c626 -2 636 -2 654 -23 11 -11 18 -33 18 -52 -1 -18 -31
-178 -67 -356 -73 -362 -80 -379 -163 -428 l-48 -28 -460 0 -460 0 -47 28
c-52 30 -85 71 -99 120 -4 18 -36 219 -69 447 -34 228 -64 418 -66 422 -3 4
-49 8 -103 8 -115 0 -144 14 -144 68 0 67 36 83 175 79 96 -3 111 -6 147 -30z
m383 -1248 c114 -57 136 -212 43 -304 -53 -54 -113 -70 -187 -50 -167 43 -192
275 -38 355 60 32 117 31 182 -1z m705 -5 c58 -33 94 -97 95 -167 1 -115 -82
-200 -197 -200 -53 0 -117 26 -146 59 -85 97 -61 256 46 312 69 36 134 34 202
-4z"/>
</g>
</svg>
